<svg id="visual" viewBox="0 0 960 50" width="960" height="50" xmlns="http://www.w3.org/2000/svg" xmlns:xlink="http://www.w3.org/1999/xlink" version="1.1"><rect x="0" y="0" width="960" height="50" fill="#304820"></rect><path d="M0 12L14.5 12.3C29 12.7 58 13.3 87.2 13.5C116.3 13.7 145.7 13.3 174.8 13.5C204 13.7 233 14.3 262 15C291 15.7 320 16.3 349 16.8C378 17.3 407 17.7 436.2 16.5C465.3 15.3 494.7 12.7 523.8 13.2C553 13.7 582 17.3 611 17C640 16.7 669 12.3 698 10.3C727 8.3 756 8.7 785.2 9C814.3 9.3 843.7 9.7 872.8 9.7C902 9.7 931 9.3 945.5 9.2L960 9L960 51L945.5 51C931 51 902 51 872.8 51C843.7 51 814.3 51 785.2 51C756 51 727 51 698 51C669 51 640 51 611 51C582 51 553 51 523.8 51C494.7 51 465.3 51 436.2 51C407 51 378 51 349 51C320 51 291 51 262 51C233 51 204 51 174.8 51C145.7 51 116.3 51 87.2 51C58 51 29 51 14.5 51L0 51Z" fill="#304820"></path><path d="M0 15L14.5 16.7C29 18.3 58 21.7 87.2 21.5C116.3 21.3 145.7 17.7 174.8 16.2C204 14.7 233 15.3 262 15.3C291 15.3 320 14.7 349 15.8C378 17 407 20 436.2 21C465.3 22 494.7 21 523.8 19.8C553 18.7 582 17.3 611 16.3C640 15.3 669 14.7 698 16.3C727 18 756 22 785.2 23.5C814.3 25 843.7 24 872.8 23.8C902 23.7 931 24.3 945.5 24.7L960 25L960 51L945.5 51C931 51 902 51 872.8 51C843.7 51 814.3 51 785.2 51C756 51 727 51 698 51C669 51 640 51 611 51C582 51 553 51 523.8 51C494.7 51 465.3 51 436.2 51C407 51 378 51 349 51C320 51 291 51 262 51C233 51 204 51 174.8 51C145.7 51 116.3 51 87.2 51C58 51 29 51 14.5 51L0 51Z" fill="#3c5229"></path><path d="M0 27L14.5 27.2C29 27.3 58 27.7 87.2 27.5C116.3 27.3 145.7 26.7 174.8 26.7C204 26.7 233 27.3 262 27.8C291 28.3 320 28.7 349 27.5C378 26.3 407 23.7 436.2 22.7C465.3 21.7 494.7 22.3 523.8 22.3C553 22.3 582 21.7 611 21C640 20.3 669 19.7 698 21.2C727 22.7 756 26.3 785.2 27.5C814.3 28.7 843.7 27.3 872.8 25.7C902 24 931 22 945.5 21L960 20L960 51L945.5 51C931 51 902 51 872.8 51C843.7 51 814.3 51 785.2 51C756 51 727 51 698 51C669 51 640 51 611 51C582 51 553 51 523.8 51C494.7 51 465.3 51 436.2 51C407 51 378 51 349 51C320 51 291 51 262 51C233 51 204 51 174.8 51C145.7 51 116.3 51 87.2 51C58 51 29 51 14.5 51L0 51Z" fill="#475b32"></path><path d="M0 30L14.5 30.5C29 31 58 32 87.2 32C116.3 32 145.7 31 174.8 30.8C204 30.7 233 31.3 262 31.3C291 31.3 320 30.7 349 30.8C378 31 407 32 436.2 31.7C465.3 31.3 494.7 29.7 523.8 29.5C553 29.3 582 30.7 611 30.3C640 30 669 28 698 28.3C727 28.7 756 31.3 785.2 31.5C814.3 31.7 843.7 29.3 872.8 29.2C902 29 931 31 945.5 32L960 33L960 51L945.5 51C931 51 902 51 872.8 51C843.7 51 814.3 51 785.2 51C756 51 727 51 698 51C669 51 640 51 611 51C582 51 553 51 523.8 51C494.7 51 465.3 51 436.2 51C407 51 378 51 349 51C320 51 291 51 262 51C233 51 204 51 174.8 51C145.7 51 116.3 51 87.2 51C58 51 29 51 14.5 51L0 51Z" fill="#53653b"></path><path d="M0 36L14.5 34.8C29 33.7 58 31.3 87.2 31.3C116.3 31.3 145.7 33.7 174.8 35C204 36.3 233 36.7 262 35.7C291 34.7 320 32.3 349 31.3C378 30.3 407 30.7 436.2 31.3C465.3 32 494.7 33 523.8 32.7C553 32.3 582 30.7 611 31.3C640 32 669 35 698 35.5C727 36 756 34 785.2 32.8C814.3 31.7 843.7 31.3 872.8 31.2C902 31 931 31 945.5 31L960 31L960 51L945.5 51C931 51 902 51 872.8 51C843.7 51 814.3 51 785.2 51C756 51 727 51 698 51C669 51 640 51 611 51C582 51 553 51 523.8 51C494.7 51 465.3 51 436.2 51C407 51 378 51 349 51C320 51 291 51 262 51C233 51 204 51 174.8 51C145.7 51 116.3 51 87.2 51C58 51 29 51 14.5 51L0 51Z" fill="#5f6f44"></path><path d="M0 41L14.5 40.5C29 40 58 39 87.2 39C116.3 39 145.7 40 174.8 39.8C204 39.7 233 38.3 262 38.2C291 38 320 39 349 39.7C378 40.3 407 40.7 436.2 40.8C465.3 41 494.7 41 523.8 40.3C553 39.7 582 38.3 611 37.3C640 36.3 669 35.7 698 36.2C727 36.7 756 38.3 785.2 38.8C814.3 39.3 843.7 38.7 872.8 38.8C902 39 931 40 945.5 40.5L960 41L960 51L945.5 51C931 51 902 51 872.8 51C843.7 51 814.3 51 785.2 51C756 51 727 51 698 51C669 51 640 51 611 51C582 51 553 51 523.8 51C494.7 51 465.3 51 436.2 51C407 51 378 51 349 51C320 51 291 51 262 51C233 51 204 51 174.8 51C145.7 51 116.3 51 87.2 51C58 51 29 51 14.5 51L0 51Z" fill="#6b7a4e"></path><path d="M0 43L14.5 42.5C29 42 58 41 87.2 41.2C116.3 41.3 145.7 42.7 174.8 43.3C204 44 233 44 262 44C291 44 320 44 349 44C378 44 407 44 436.2 44.2C465.3 44.3 494.7 44.7 523.8 44.3C553 44 582 43 611 42.3C640 41.7 669 41.3 698 41.2C727 41 756 41 785.2 41.2C814.3 41.3 843.7 41.7 872.8 41.7C902 41.7 931 41.3 945.5 41.2L960 41L960 51L945.5 51C931 51 902 51 872.8 51C843.7 51 814.3 51 785.2 51C756 51 727 51 698 51C669 51 640 51 611 51C582 51 553 51 523.8 51C494.7 51 465.3 51 436.2 51C407 51 378 51 349 51C320 51 291 51 262 51C233 51 204 51 174.8 51C145.7 51 116.3 51 87.2 51C58 51 29 51 14.5 51L0 51Z" fill="#788458"></path></svg>