<svg id="visual" viewBox="0 0 960 150" width="960" height="150" xmlns="http://www.w3.org/2000/svg" xmlns:xlink="http://www.w3.org/1999/xlink" version="1.1"><rect x="0" y="0" width="960" height="150" fill="#304820"></rect><path d="M0 43L14.5 46.5C29 50 58 57 87.2 60.3C116.3 63.7 145.7 63.3 174.8 56.7C204 50 233 37 262 33.5C291 30 320 36 349 40.7C378 45.3 407 48.7 436.2 51C465.3 53.3 494.7 54.7 523.8 52.5C553 50.3 582 44.7 611 43.8C640 43 669 47 698 49.8C727 52.7 756 54.3 785.2 53.7C814.3 53 843.7 50 872.8 45.5C902 41 931 35 945.5 32L960 29L960 151L945.5 151C931 151 902 151 872.8 151C843.7 151 814.3 151 785.2 151C756 151 727 151 698 151C669 151 640 151 611 151C582 151 553 151 523.8 151C494.7 151 465.3 151 436.2 151C407 151 378 151 349 151C320 151 291 151 262 151C233 151 204 151 174.8 151C145.7 151 116.3 151 87.2 151C58 151 29 151 14.5 151L0 151Z" fill="#a0c450"></path><path d="M0 80L14.5 76.2C29 72.3 58 64.7 87.2 59.7C116.3 54.7 145.7 52.3 174.8 51.3C204 50.3 233 50.7 262 48.8C291 47 320 43 349 41.7C378 40.3 407 41.7 436.2 47.8C465.3 54 494.7 65 523.8 65.2C553 65.3 582 54.7 611 51.2C640 47.7 669 51.3 698 52.7C727 54 756 53 785.2 54C814.3 55 843.7 58 872.8 62.3C902 66.7 931 72.3 945.5 75.2L960 78L960 151L945.5 151C931 151 902 151 872.8 151C843.7 151 814.3 151 785.2 151C756 151 727 151 698 151C669 151 640 151 611 151C582 151 553 151 523.8 151C494.7 151 465.3 151 436.2 151C407 151 378 151 349 151C320 151 291 151 262 151C233 151 204 151 174.8 151C145.7 151 116.3 151 87.2 151C58 151 29 151 14.5 151L0 151Z" fill="#99b952"></path><path d="M0 92L14.5 87.5C29 83 58 74 87.2 73.5C116.3 73 145.7 81 174.8 83.5C204 86 233 83 262 80.5C291 78 320 76 349 75.2C378 74.3 407 74.7 436.2 76.8C465.3 79 494.7 83 523.8 85.8C553 88.7 582 90.3 611 88C640 85.7 669 79.3 698 78.2C727 77 756 81 785.2 84.2C814.3 87.3 843.7 89.7 872.8 86.7C902 83.7 931 75.3 945.5 71.2L960 67L960 151L945.5 151C931 151 902 151 872.8 151C843.7 151 814.3 151 785.2 151C756 151 727 151 698 151C669 151 640 151 611 151C582 151 553 151 523.8 151C494.7 151 465.3 151 436.2 151C407 151 378 151 349 151C320 151 291 151 262 151C233 151 204 151 174.8 151C145.7 151 116.3 151 87.2 151C58 151 29 151 14.5 151L0 151Z" fill="#93ae54"></path><path d="M0 82L14.5 85.3C29 88.7 58 95.3 87.2 98.8C116.3 102.3 145.7 102.7 174.8 101.2C204 99.7 233 96.3 262 95.8C291 95.3 320 97.7 349 96C378 94.3 407 88.7 436.2 85.2C465.3 81.7 494.7 80.3 523.8 82C553 83.7 582 88.3 611 88.5C640 88.7 669 84.3 698 85.8C727 87.3 756 94.7 785.2 97.3C814.3 100 843.7 98 872.8 97.3C902 96.7 931 97.3 945.5 97.7L960 98L960 151L945.5 151C931 151 902 151 872.8 151C843.7 151 814.3 151 785.2 151C756 151 727 151 698 151C669 151 640 151 611 151C582 151 553 151 523.8 151C494.7 151 465.3 151 436.2 151C407 151 378 151 349 151C320 151 291 151 262 151C233 151 204 151 174.8 151C145.7 151 116.3 151 87.2 151C58 151 29 151 14.5 151L0 151Z" fill="#8ca355"></path><path d="M0 113L14.5 111.2C29 109.3 58 105.7 87.2 104.8C116.3 104 145.7 106 174.8 107.8C204 109.7 233 111.3 262 109C291 106.7 320 100.3 349 97.2C378 94 407 94 436.2 95.2C465.3 96.3 494.7 98.7 523.8 97.8C553 97 582 93 611 93.8C640 94.7 669 100.3 698 101.2C727 102 756 98 785.2 97.5C814.3 97 843.7 100 872.8 100C902 100 931 97 945.5 95.5L960 94L960 151L945.5 151C931 151 902 151 872.8 151C843.7 151 814.3 151 785.2 151C756 151 727 151 698 151C669 151 640 151 611 151C582 151 553 151 523.8 151C494.7 151 465.3 151 436.2 151C407 151 378 151 349 151C320 151 291 151 262 151C233 151 204 151 174.8 151C145.7 151 116.3 151 87.2 151C58 151 29 151 14.5 151L0 151Z" fill="#859956"></path><path d="M0 113L14.5 114.2C29 115.3 58 117.7 87.2 116.7C116.3 115.7 145.7 111.3 174.8 110.7C204 110 233 113 262 116.2C291 119.3 320 122.7 349 121.3C378 120 407 114 436.2 110.5C465.3 107 494.7 106 523.8 108.7C553 111.3 582 117.7 611 118.3C640 119 669 114 698 114.3C727 114.7 756 120.3 785.2 121.7C814.3 123 843.7 120 872.8 116.7C902 113.3 931 109.7 945.5 107.8L960 106L960 151L945.5 151C931 151 902 151 872.8 151C843.7 151 814.3 151 785.2 151C756 151 727 151 698 151C669 151 640 151 611 151C582 151 553 151 523.8 151C494.7 151 465.3 151 436.2 151C407 151 378 151 349 151C320 151 291 151 262 151C233 151 204 151 174.8 151C145.7 151 116.3 151 87.2 151C58 151 29 151 14.5 151L0 151Z" fill="#7f8e57"></path><path d="M0 123L14.5 125.7C29 128.3 58 133.7 87.2 135C116.3 136.3 145.7 133.7 174.8 132.3C204 131 233 131 262 131C291 131 320 131 349 131.7C378 132.3 407 133.7 436.2 132.2C465.3 130.7 494.7 126.3 523.8 125.5C553 124.7 582 127.3 611 128.2C640 129 669 128 698 128C727 128 756 129 785.2 130.2C814.3 131.3 843.7 132.7 872.8 132.8C902 133 931 132 945.5 131.5L960 131L960 151L945.5 151C931 151 902 151 872.8 151C843.7 151 814.3 151 785.2 151C756 151 727 151 698 151C669 151 640 151 611 151C582 151 553 151 523.8 151C494.7 151 465.3 151 436.2 151C407 151 378 151 349 151C320 151 291 151 262 151C233 151 204 151 174.8 151C145.7 151 116.3 151 87.2 151C58 151 29 151 14.5 151L0 151Z" fill="#788458"></path></svg>