<svg id="visual" viewBox="0 0 960 50" width="960" height="50" xmlns="http://www.w3.org/2000/svg" xmlns:xlink="http://www.w3.org/1999/xlink" version="1.1"><rect x="0" y="0" width="960" height="50" fill="#304820"></rect><path d="M0 36L14.5 35.7C29 35.3 58 34.7 87.2 34.5C116.3 34.3 145.7 34.7 174.8 34.5C204 34.3 233 33.7 262 33C291 32.3 320 31.7 349 31.2C378 30.7 407 30.3 436.2 31.5C465.3 32.7 494.7 35.3 523.8 34.8C553 34.3 582 30.7 611 31C640 31.3 669 35.7 698 37.7C727 39.7 756 39.3 785.2 39C814.3 38.7 843.7 38.3 872.8 38.3C902 38.3 931 38.7 945.5 38.8L960 39L960 0L945.5 0C931 0 902 0 872.8 0C843.7 0 814.3 0 785.2 0C756 0 727 0 698 0C669 0 640 0 611 0C582 0 553 0 523.8 0C494.7 0 465.3 0 436.2 0C407 0 378 0 349 0C320 0 291 0 262 0C233 0 204 0 174.8 0C145.7 0 116.3 0 87.2 0C58 0 29 0 14.5 0L0 0Z" fill="#304820"></path><path d="M0 33L14.5 31.3C29 29.7 58 26.3 87.2 26.5C116.3 26.7 145.7 30.3 174.8 31.8C204 33.3 233 32.7 262 32.7C291 32.7 320 33.3 349 32.2C378 31 407 28 436.2 27C465.3 26 494.7 27 523.8 28.2C553 29.3 582 30.7 611 31.7C640 32.7 669 33.3 698 31.7C727 30 756 26 785.2 24.5C814.3 23 843.7 24 872.8 24.2C902 24.3 931 23.7 945.5 23.3L960 23L960 0L945.5 0C931 0 902 0 872.8 0C843.7 0 814.3 0 785.2 0C756 0 727 0 698 0C669 0 640 0 611 0C582 0 553 0 523.8 0C494.7 0 465.3 0 436.2 0C407 0 378 0 349 0C320 0 291 0 262 0C233 0 204 0 174.8 0C145.7 0 116.3 0 87.2 0C58 0 29 0 14.5 0L0 0Z" fill="#3c5229"></path><path d="M0 21L14.5 20.8C29 20.7 58 20.3 87.2 20.5C116.3 20.7 145.7 21.3 174.8 21.3C204 21.3 233 20.7 262 20.2C291 19.7 320 19.3 349 20.5C378 21.7 407 24.3 436.2 25.3C465.3 26.3 494.7 25.7 523.8 25.7C553 25.7 582 26.3 611 27C640 27.7 669 28.3 698 26.8C727 25.3 756 21.7 785.2 20.5C814.3 19.3 843.7 20.7 872.8 22.3C902 24 931 26 945.5 27L960 28L960 0L945.5 0C931 0 902 0 872.8 0C843.7 0 814.3 0 785.2 0C756 0 727 0 698 0C669 0 640 0 611 0C582 0 553 0 523.8 0C494.7 0 465.3 0 436.2 0C407 0 378 0 349 0C320 0 291 0 262 0C233 0 204 0 174.8 0C145.7 0 116.3 0 87.2 0C58 0 29 0 14.5 0L0 0Z" fill="#475b32"></path><path d="M0 18L14.5 17.5C29 17 58 16 87.2 16C116.3 16 145.7 17 174.8 17.2C204 17.3 233 16.7 262 16.7C291 16.7 320 17.3 349 17.2C378 17 407 16 436.2 16.3C465.3 16.7 494.7 18.3 523.8 18.7C553 19 582 18 611 18.3C640 18.7 669 20.3 698 19.8C727 19.3 756 16.7 785.2 16.5C814.3 16.3 843.7 18.7 872.8 18.8C902 19 931 17 945.5 16L960 15L960 0L945.5 0C931 0 902 0 872.8 0C843.7 0 814.3 0 785.2 0C756 0 727 0 698 0C669 0 640 0 611 0C582 0 553 0 523.8 0C494.7 0 465.3 0 436.2 0C407 0 378 0 349 0C320 0 291 0 262 0C233 0 204 0 174.8 0C145.7 0 116.3 0 87.2 0C58 0 29 0 14.5 0L0 0Z" fill="#53653b"></path><path d="M0 12L14.5 13.2C29 14.3 58 16.7 87.2 16.7C116.3 16.7 145.7 14.3 174.8 13C204 11.7 233 11.3 262 12.3C291 13.3 320 15.7 349 16.7C378 17.7 407 17.3 436.2 16.7C465.3 16 494.7 15 523.8 15.3C553 15.7 582 17.3 611 16.7C640 16 669 13 698 12.5C727 12 756 14 785.2 15.2C814.3 16.3 843.7 16.7 872.8 16.8C902 17 931 17 945.5 17L960 17L960 0L945.5 0C931 0 902 0 872.8 0C843.7 0 814.3 0 785.2 0C756 0 727 0 698 0C669 0 640 0 611 0C582 0 553 0 523.8 0C494.7 0 465.3 0 436.2 0C407 0 378 0 349 0C320 0 291 0 262 0C233 0 204 0 174.8 0C145.7 0 116.3 0 87.2 0C58 0 29 0 14.5 0L0 0Z" fill="#5f6f44"></path><path d="M0 7L14.5 7.5C29 8 58 9 87.2 9C116.3 9 145.7 8 174.8 8.2C204 8.3 233 9.7 262 9.8C291 10 320 9 349 8.3C378 7.7 407 7.3 436.2 7.2C465.3 7 494.7 7 523.8 7.7C553 8.3 582 9.7 611 10.7C640 11.7 669 12.3 698 11.8C727 11.3 756 9.7 785.2 9.2C814.3 8.7 843.7 9.3 872.8 9.2C902 9 931 8 945.5 7.5L960 7L960 0L945.5 0C931 0 902 0 872.8 0C843.7 0 814.3 0 785.2 0C756 0 727 0 698 0C669 0 640 0 611 0C582 0 553 0 523.8 0C494.7 0 465.3 0 436.2 0C407 0 378 0 349 0C320 0 291 0 262 0C233 0 204 0 174.8 0C145.7 0 116.3 0 87.2 0C58 0 29 0 14.5 0L0 0Z" fill="#6b7a4e"></path><path d="M0 5L14.5 5.5C29 6 58 7 87.2 6.8C116.3 6.7 145.7 5.3 174.8 4.7C204 4 233 4 262 4C291 4 320 4 349 4C378 4 407 4 436.2 3.8C465.3 3.7 494.7 3.3 523.8 3.7C553 4 582 5 611 5.7C640 6.3 669 6.7 698 6.8C727 7 756 7 785.2 6.8C814.3 6.7 843.7 6.3 872.8 6.3C902 6.3 931 6.7 945.5 6.8L960 7L960 0L945.5 0C931 0 902 0 872.8 0C843.7 0 814.3 0 785.2 0C756 0 727 0 698 0C669 0 640 0 611 0C582 0 553 0 523.8 0C494.7 0 465.3 0 436.2 0C407 0 378 0 349 0C320 0 291 0 262 0C233 0 204 0 174.8 0C145.7 0 116.3 0 87.2 0C58 0 29 0 14.5 0L0 0Z" fill="#788458"></path></svg>