<svg id="visual" viewBox="0 0 960 150" width="960" height="150" xmlns="http://www.w3.org/2000/svg" xmlns:xlink="http://www.w3.org/1999/xlink" version="1.1"><rect x="0" y="0" width="960" height="150" fill="#304820"></rect><path d="M0 109L14.5 108C29 107 58 105 87.2 104.7C116.3 104.3 145.7 105.7 174.8 105.5C204 105.3 233 103.7 262 101.5C291 99.3 320 96.7 349 95C378 93.3 407 92.7 436.2 96.3C465.3 100 494.7 108 523.8 106.5C553 105 582 94 611 94.8C640 95.7 669 108.3 698 114.3C727 120.3 756 119.7 785.2 119C814.3 118.3 843.7 117.7 872.8 117.5C902 117.3 931 117.7 945.5 117.8L960 118L960 0L945.5 0C931 0 902 0 872.8 0C843.7 0 814.3 0 785.2 0C756 0 727 0 698 0C669 0 640 0 611 0C582 0 553 0 523.8 0C494.7 0 465.3 0 436.2 0C407 0 378 0 349 0C320 0 291 0 262 0C233 0 204 0 174.8 0C145.7 0 116.3 0 87.2 0C58 0 29 0 14.5 0L0 0Z" fill="#a0c450"></path><path d="M0 102L14.5 97C29 92 58 82 87.2 82.3C116.3 82.7 145.7 93.3 174.8 97.8C204 102.3 233 100.7 262 100.7C291 100.7 320 102.3 349 98.7C378 95 407 86 436.2 83.2C465.3 80.3 494.7 83.7 523.8 87.3C553 91 582 95 611 97.8C640 100.7 669 102.3 698 97.2C727 92 756 80 785.2 75.5C814.3 71 843.7 74 872.8 74.3C902 74.7 931 72.3 945.5 71.2L960 70L960 0L945.5 0C931 0 902 0 872.8 0C843.7 0 814.3 0 785.2 0C756 0 727 0 698 0C669 0 640 0 611 0C582 0 553 0 523.8 0C494.7 0 465.3 0 436.2 0C407 0 378 0 349 0C320 0 291 0 262 0C233 0 204 0 174.8 0C145.7 0 116.3 0 87.2 0C58 0 29 0 14.5 0L0 0Z" fill="#99b952"></path><path d="M0 66L14.5 65.5C29 65 58 64 87.2 64.3C116.3 64.7 145.7 66.3 174.8 66.2C204 66 233 64 262 62.3C291 60.7 320 59.3 349 63C378 66.7 407 75.3 436.2 78.5C465.3 81.7 494.7 79.3 523.8 79.3C553 79.3 582 81.7 611 83.5C640 85.3 669 86.7 698 82C727 77.3 756 66.7 785.2 63.5C814.3 60.3 843.7 64.7 872.8 69.7C902 74.7 931 80.3 945.5 83.2L960 86L960 0L945.5 0C931 0 902 0 872.8 0C843.7 0 814.3 0 785.2 0C756 0 727 0 698 0C669 0 640 0 611 0C582 0 553 0 523.8 0C494.7 0 465.3 0 436.2 0C407 0 378 0 349 0C320 0 291 0 262 0C233 0 204 0 174.8 0C145.7 0 116.3 0 87.2 0C58 0 29 0 14.5 0L0 0Z" fill="#93ae54"></path><path d="M0 55L14.5 53.5C29 52 58 49 87.2 49.3C116.3 49.7 145.7 53.3 174.8 54C204 54.7 233 52.3 262 52C291 51.7 320 53.3 349 52.8C378 52.3 407 49.7 436.2 50.8C465.3 52 494.7 57 523.8 57.8C553 58.7 582 55.3 611 56.5C640 57.7 669 63.3 698 62C727 60.7 756 52.3 785.2 51.8C814.3 51.3 843.7 58.7 872.8 59C902 59.3 931 52.7 945.5 49.3L960 46L960 0L945.5 0C931 0 902 0 872.8 0C843.7 0 814.3 0 785.2 0C756 0 727 0 698 0C669 0 640 0 611 0C582 0 553 0 523.8 0C494.7 0 465.3 0 436.2 0C407 0 378 0 349 0C320 0 291 0 262 0C233 0 204 0 174.8 0C145.7 0 116.3 0 87.2 0C58 0 29 0 14.5 0L0 0Z" fill="#8ca355"></path><path d="M0 39L14.5 42.3C29 45.7 58 52.3 87.2 52.3C116.3 52.3 145.7 45.7 174.8 41.8C204 38 233 37 262 40C291 43 320 50 349 52.7C378 55.3 407 53.7 436.2 51.5C465.3 49.3 494.7 46.7 523.8 47.7C553 48.7 582 53.3 611 51.5C640 49.7 669 41.3 698 40C727 38.7 756 44.3 785.2 47.8C814.3 51.3 843.7 52.7 872.8 53.2C902 53.7 931 53.3 945.5 53.2L960 53L960 0L945.5 0C931 0 902 0 872.8 0C843.7 0 814.3 0 785.2 0C756 0 727 0 698 0C669 0 640 0 611 0C582 0 553 0 523.8 0C494.7 0 465.3 0 436.2 0C407 0 378 0 349 0C320 0 291 0 262 0C233 0 204 0 174.8 0C145.7 0 116.3 0 87.2 0C58 0 29 0 14.5 0L0 0Z" fill="#859956"></path><path d="M0 22L14.5 23.7C29 25.3 58 28.7 87.2 28.8C116.3 29 145.7 26 174.8 26.5C204 27 233 31 262 31.3C291 31.7 320 28.3 349 26.2C378 24 407 23 436.2 22.7C465.3 22.3 494.7 22.7 523.8 25C553 27.3 582 31.7 611 34.7C640 37.7 669 39.3 698 37.5C727 35.7 756 30.3 785.2 29C814.3 27.7 843.7 30.3 872.8 30.2C902 30 931 27 945.5 25.5L960 24L960 0L945.5 0C931 0 902 0 872.8 0C843.7 0 814.3 0 785.2 0C756 0 727 0 698 0C669 0 640 0 611 0C582 0 553 0 523.8 0C494.7 0 465.3 0 436.2 0C407 0 378 0 349 0C320 0 291 0 262 0C233 0 204 0 174.8 0C145.7 0 116.3 0 87.2 0C58 0 29 0 14.5 0L0 0Z" fill="#7f8e57"></path><path d="M0 16L14.5 17.7C29 19.3 58 22.7 87.2 22.5C116.3 22.3 145.7 18.7 174.8 16.8C204 15 233 15 262 14.8C291 14.7 320 14.3 349 14.3C378 14.3 407 14.7 436.2 14.3C465.3 14 494.7 13 523.8 14C553 15 582 18 611 20C640 22 669 23 698 23.3C727 23.7 756 23.3 785.2 22.5C814.3 21.7 843.7 20.3 872.8 20.5C902 20.7 931 22.3 945.5 23.2L960 24L960 0L945.5 0C931 0 902 0 872.8 0C843.7 0 814.3 0 785.2 0C756 0 727 0 698 0C669 0 640 0 611 0C582 0 553 0 523.8 0C494.7 0 465.3 0 436.2 0C407 0 378 0 349 0C320 0 291 0 262 0C233 0 204 0 174.8 0C145.7 0 116.3 0 87.2 0C58 0 29 0 14.5 0L0 0Z" fill="#788458"></path></svg>